<mxfile host="65bd71144e">
    <diagram name="System Architecture" id="system-architecture">
        <mxGraphModel dx="1045" dy="372" grid="0" gridSize="10" guides="1" tooltips="1" connect="1" arrows="1" fold="1" page="1" pageScale="1" pageWidth="1169" pageHeight="827" math="0" shadow="0">
            <root>
                <mxCell id="0"/>
                <mxCell id="1" parent="0"/>
                <mxCell id="company-zone" value="社内環境" style="rounded=0;whiteSpace=wrap;html=1;fillColor=#e1d5e7;strokeColor=#9673a6;fontSize=16;fontStyle=1;verticalAlign=top;spacingTop=10;" parent="1" vertex="1">
                    <mxGeometry x="150" y="100" width="150" height="190" as="geometry"/>
                </mxCell>
                <mxCell id="vscode" value="" style="sketch=0;outlineConnect=0;fontColor=#232F3E;gradientColor=none;fillColor=#007ACC;strokeColor=none;dashed=0;verticalLabelPosition=bottom;verticalAlign=top;align=center;html=1;fontSize=12;fontStyle=0;aspect=fixed;pointerEvents=1;shape=mxgraph.aws4.client;" parent="1" vertex="1">
                    <mxGeometry x="200" y="150" width="45" height="45" as="geometry"/>
                </mxCell>
                <mxCell id="vscode-label" value="VSCode&#xa;(Local PC)" style="text;html=1;strokeColor=none;fillColor=none;align=center;verticalAlign=middle;whiteSpace=wrap;rounded=0;fontSize=12;" parent="1" vertex="1">
                    <mxGeometry x="180" y="200" width="85" height="30" as="geometry"/>
                </mxCell>
                <mxCell id="github-zone" value="GitHub Cloud" style="rounded=0;whiteSpace=wrap;html=1;fillColor=#d5e8d4;strokeColor=#82b366;fontSize=16;fontStyle=1;verticalAlign=top;spacingTop=10;" parent="1" vertex="1">
                    <mxGeometry x="400" y="100" width="300" height="190" as="geometry"/>
                </mxCell>
                <mxCell id="github" value="" style="sketch=0;outlineConnect=0;fontColor=#232F3E;gradientColor=none;fillColor=#232F3D;strokeColor=none;dashed=0;verticalLabelPosition=bottom;verticalAlign=top;align=center;html=1;fontSize=12;fontStyle=0;aspect=fixed;pointerEvents=1;shape=mxgraph.aws4.git_repository;" parent="1" vertex="1">
                    <mxGeometry x="450" y="150" width="45" height="45" as="geometry"/>
                </mxCell>
                <mxCell id="github-label" value="GitHub&#xa;Repository" style="text;html=1;strokeColor=none;fillColor=none;align=center;verticalAlign=middle;whiteSpace=wrap;rounded=0;fontSize=12;" parent="1" vertex="1">
                    <mxGeometry x="430" y="200" width="85" height="30" as="geometry"/>
                </mxCell>
                <mxCell id="github-actions" value="" style="sketch=0;outlineConnect=0;fontColor=#232F3E;gradientColor=none;fillColor=#28a745;strokeColor=none;dashed=0;verticalLabelPosition=bottom;verticalAlign=top;align=center;html=1;fontSize=12;fontStyle=0;aspect=fixed;pointerEvents=1;shape=mxgraph.aws4.codepipeline;" parent="1" vertex="1">
                    <mxGeometry x="580" y="150" width="45" height="45" as="geometry"/>
                </mxCell>
                <mxCell id="github-actions-label" value="GitHub Actions&#xa;(Artifacts)" style="text;html=1;strokeColor=none;fillColor=none;align=center;verticalAlign=middle;whiteSpace=wrap;rounded=0;fontSize=12;" parent="1" vertex="1">
                    <mxGeometry x="540" y="200" width="125" height="30" as="geometry"/>
                </mxCell>
                <mxCell id="aws-zone" value="AWS" style="rounded=0;whiteSpace=wrap;html=1;fillColor=#fff2cc;strokeColor=#d6b656;fontSize=16;fontStyle=1;verticalAlign=top;spacingTop=10;" parent="1" vertex="1">
                    <mxGeometry x="800" y="100" width="250" height="290" as="geometry"/>
                </mxCell>
                <mxCell id="self-hosted-runner" value="" style="sketch=0;points=[[0,0,0],[0.25,0,0],[0.5,0,0],[0.75,0,0],[1,0,0],[0,1,0],[0.25,1,0],[0.5,1,0],[0.75,1,0],[1,1,0],[0,0.25,0],[0,0.5,0],[0,0.75,0],[1,0.25,0],[1,0.5,0],[1,0.75,0]];outlineConnect=0;fontColor=#232F3E;gradientColor=#F78E04;gradientDirection=north;fillColor=#D05C17;strokeColor=#ffffff;dashed=0;verticalLabelPosition=bottom;verticalAlign=top;align=center;html=1;fontSize=12;fontStyle=0;aspect=fixed;shape=mxgraph.aws4.resourceIcon;resIcon=mxgraph.aws4.ec2;" parent="1" vertex="1">
                    <mxGeometry x="900" y="140" width="48" height="48" as="geometry"/>
                </mxCell>
                <mxCell id="self-hosted-runner-label" value="Self-Hosted Runner (EC2)" style="text;html=1;strokeColor=none;fillColor=none;align=center;verticalAlign=middle;whiteSpace=wrap;rounded=0;fontSize=12;" parent="1" vertex="1">
                    <mxGeometry x="860" y="190" width="128" height="30" as="geometry"/>
                </mxCell>
                <mxCell id="comment-block" value="※RunTime Environment&#xa;※Application Build" style="rounded=1;whiteSpace=wrap;html=1;fillColor=#f8f9fa;strokeColor=#dee2e6;fontSize=10;fontStyle=2;verticalAlign=top;spacingTop=5;" parent="1" vertex="1">
                    <mxGeometry x="849" y="230" width="150" height="50" as="geometry"/>
                </mxCell>
                <mxCell id="dev-server" value="" style="sketch=0;points=[[0,0,0],[0.25,0,0],[0.5,0,0],[0.75,0,0],[1,0,0],[0,1,0],[0.25,1,0],[0.5,1,0],[0.75,1,0],[1,1,0],[0,0.25,0],[0,0.5,0],[0,0.75,0],[1,0.25,0],[1,0.5,0],[1,0.75,0]];outlineConnect=0;fontColor=#232F3E;gradientColor=#F78E04;gradientDirection=north;fillColor=#D05C17;strokeColor=#ffffff;dashed=0;verticalLabelPosition=bottom;verticalAlign=top;align=center;html=1;fontSize=12;fontStyle=0;aspect=fixed;shape=mxgraph.aws4.resourceIcon;resIcon=mxgraph.aws4.ec2;" parent="1" vertex="1">
                    <mxGeometry x="900" y="320" width="48" height="48" as="geometry"/>
                </mxCell>
                <mxCell id="dev-server-label" value="Dev Server (EC2)" style="text;html=1;strokeColor=none;fillColor=none;align=center;verticalAlign=middle;whiteSpace=wrap;rounded=0;fontSize=12;" parent="1" vertex="1">
                    <mxGeometry x="860" y="370" width="128" height="20" as="geometry"/>
                </mxCell>
                <mxCell id="arrow1" value="" style="endArrow=classic;html=1;rounded=0;strokeWidth=2;strokeColor=#666666;" parent="1" edge="1">
                    <mxGeometry width="50" height="50" relative="1" as="geometry">
                        <mxPoint x="250" y="172" as="sourcePoint"/>
                        <mxPoint x="450" y="172" as="targetPoint"/>
                    </mxGeometry>
                </mxCell>
                <mxCell id="arrow1-label" value="Push Code" style="edgeLabel;html=1;align=center;verticalAlign=middle;resizable=0;points=[];fontSize=10;" parent="arrow1" vertex="1" connectable="0">
                    <mxGeometry x="-0.1" y="-1" relative="1" as="geometry">
                        <mxPoint x="7" y="-14" as="offset"/>
                    </mxGeometry>
                </mxCell>
                <mxCell id="arrow2" value="" style="endArrow=classic;html=1;rounded=0;strokeWidth=2;strokeColor=#666666;" parent="1" edge="1">
                    <mxGeometry width="50" height="50" relative="1" as="geometry">
                        <mxPoint x="495" y="172" as="sourcePoint"/>
                        <mxPoint x="580" y="172" as="targetPoint"/>
                    </mxGeometry>
                </mxCell>
                <mxCell id="arrow2-label" value="Trigger" style="edgeLabel;html=1;align=center;verticalAlign=middle;resizable=0;points=[];fontSize=10;" parent="arrow2" vertex="1" connectable="0">
                    <mxGeometry x="-0.1" y="-1" relative="1" as="geometry">
                        <mxPoint y="-13" as="offset"/>
                    </mxGeometry>
                </mxCell>
                <mxCell id="arrow3" value="" style="endArrow=classic;html=1;rounded=0;strokeWidth=2;strokeColor=#666666;" parent="1" edge="1" source="github-actions">
                    <mxGeometry width="50" height="50" relative="1" as="geometry">
                        <mxPoint x="680" y="172" as="sourcePoint"/>
                        <mxPoint x="905" y="172" as="targetPoint"/>
                    </mxGeometry>
                </mxCell>
                <mxCell id="arrow3-label" value="Execute Job &amp; Build" style="edgeLabel;html=1;align=center;verticalAlign=middle;resizable=0;points=[];fontSize=10;" parent="arrow3" vertex="1" connectable="0">
                    <mxGeometry x="-0.1" y="-1" relative="1" as="geometry">
                        <mxPoint x="-1" y="-13" as="offset"/>
                    </mxGeometry>
                </mxCell>
                <mxCell id="arrow4" value="" style="endArrow=classic;html=1;rounded=0;strokeWidth=2;strokeColor=#666666;" parent="1" edge="1">
                    <mxGeometry width="50" height="50" relative="1" as="geometry">
                        <mxPoint x="900" y="180" as="sourcePoint"/>
                        <mxPoint x="625" y="180" as="targetPoint"/>
                    </mxGeometry>
                </mxCell>
                <mxCell id="arrow4-label" value="Save Artifacts" style="edgeLabel;html=1;align=center;verticalAlign=middle;resizable=0;points=[];fontSize=10;" parent="arrow4" vertex="1" connectable="0">
                    <mxGeometry x="-0.1" y="-1" relative="1" as="geometry">
                        <mxPoint x="-20" y="10" as="offset"/>
                    </mxGeometry>
                </mxCell>
                <mxCell id="arrow5" value="" style="endArrow=classic;html=1;rounded=0;strokeWidth=2;strokeColor=#666666;" parent="1" edge="1">
                    <mxGeometry width="50" height="50" relative="1" as="geometry">
                        <mxPoint x="603" y="195" as="sourcePoint"/>
                        <mxPoint x="924" y="320" as="targetPoint"/>
                    </mxGeometry>
                </mxCell>
                <mxCell id="arrow5-label" value="Application Deploy" style="edgeLabel;html=1;align=center;verticalAlign=middle;resizable=0;points=[];fontSize=10;" parent="arrow5" vertex="1" connectable="0">
                    <mxGeometry x="-0.1" y="-1" relative="1" as="geometry">
                        <mxPoint x="30" y="-10" as="offset"/>
                    </mxGeometry>
                </mxCell>
                <mxCell id="title" value="CI/CD Architecture Diagram" style="text;html=1;strokeColor=none;fillColor=none;align=center;verticalAlign=middle;whiteSpace=wrap;rounded=0;fontSize=20;fontStyle=1;" parent="1" vertex="1">
                    <mxGeometry x="450" y="50" width="300" height="30" as="geometry"/>
                </mxCell>
            </root>
        </mxGraphModel>
    </diagram>
</mxfile>